<svg width="43" height="44" viewBox="0 0 43 44" fill="none" xmlns="http://www.w3.org/2000/svg">
<g clip-path="url(#clip0)">
<path d="M29.8569 35.4066V37.6422C29.0119 38.1801 28.1284 38.6527 27.214 39.056C23.623 40.6276 19.6478 41.0526 15.8144 40.2747C11.9809 39.4968 8.4698 37.5527 5.74553 34.6996C2.0614 30.8559 -0.000732422 25.6988 -0.000732422 20.3291C-0.000732422 14.9593 2.0614 9.80218 5.74553 5.95849C7.52127 4.10812 9.63367 2.62695 11.9651 1.5975C14.3736 0.543552 16.9678 0 19.5895 0C22.2112 0 24.8054 0.543552 27.214 1.5975C29.7851 2.76664 32.0876 4.47025 33.9734 6.59889C35.8593 8.72753 37.2868 11.2341 38.1643 13.9577C39.0419 16.6812 39.35 19.5615 39.0688 22.4134C38.7877 25.2653 37.9236 28.0259 36.532 30.5177H34.6152V28.1536C34.773 27.8277 34.9173 27.4971 35.0662 27.1574C36.8253 22.794 36.8253 17.9009 35.0662 13.5374C34.2276 11.4646 33.0023 9.57673 31.458 7.97831C29.938 6.38346 28.1252 5.10769 26.1225 4.22327C24.0565 3.31976 21.8314 2.85381 19.5827 2.85381C17.3341 2.85381 15.109 3.31976 13.043 4.22327C11.0377 5.10338 9.22299 6.37792 7.70294 7.97372C6.1577 9.57657 4.93239 11.4691 4.0948 13.5466C2.79082 16.7536 2.43763 20.279 3.07879 23.6879C3.71995 27.0968 5.32742 30.2402 7.70294 32.7303C9.22626 34.3222 11.0402 35.5961 13.043 36.4808C15.4541 37.5469 18.0818 38.0071 20.7044 37.8226C23.327 37.638 25.8675 36.8141 28.1115 35.4203L29.8569 35.4066ZM32.8968 33.6484C32.9659 33.6531 33.0352 33.6531 33.1042 33.6484H34.3626C34.0649 34.0019 33.7582 34.3416 33.438 34.6767C33.2621 34.8557 33.0862 35.0347 32.9058 35.2092V33.8045C32.9079 33.7693 32.9079 33.7341 32.9058 33.6989L32.8968 33.6484Z" fill="#413C5A"/>
<path fill-rule="evenodd" clip-rule="evenodd" d="M32.2521 34.5345C32.05 34.5356 31.8497 34.4956 31.663 34.4167C31.4764 34.3379 31.3071 34.2219 31.1651 34.0754C31.0219 33.9295 30.9084 33.7563 30.831 33.5657C30.7536 33.375 30.7139 33.1708 30.7141 32.9645V23.4805C30.7141 23.069 30.8747 22.6744 31.1606 22.3834C31.4465 22.0924 31.8342 21.929 32.2386 21.929C32.6429 21.929 33.0306 22.0924 33.3165 22.3834C33.6024 22.6744 33.763 23.069 33.763 23.4805V31.3854H41.4664C41.8759 31.389 42.2673 31.5578 42.5547 31.8547C42.8422 32.1515 43.0022 32.5523 42.9998 32.9691C43.001 33.1746 42.9622 33.3784 42.8856 33.5685C42.809 33.7587 42.6962 33.9315 42.5536 34.0771C42.4111 34.2226 42.2416 34.338 42.055 34.4165C41.8683 34.495 41.6683 34.5351 41.4664 34.5345H32.2521Z" fill="#FF6D46"/>
<path fill-rule="evenodd" clip-rule="evenodd" d="M30.7051 42.4762V34.5392H23.0107C22.5992 34.5392 22.2046 34.3728 21.9137 34.0767C21.6227 33.7805 21.4592 33.3789 21.4592 32.9601C21.4592 32.5412 21.6227 32.1396 21.9137 31.8434C22.2046 31.5473 22.5992 31.3809 23.0107 31.3809H32.225C32.4265 31.3791 32.6263 31.4188 32.8124 31.4977C32.9984 31.5766 33.1668 31.693 33.3075 31.84C33.5954 32.1356 33.7574 32.5346 33.7585 32.9509V42.4303C33.7597 42.6352 33.7212 42.8384 33.6452 43.0283C33.5692 43.2181 33.4573 43.3908 33.3157 43.5366C33.1742 43.6824 33.0058 43.7984 32.8202 43.8779C32.6346 43.9575 32.4354 43.999 32.234 44.0002C32.0351 44.0033 31.8375 43.9661 31.6527 43.891C31.4679 43.8159 31.2996 43.7043 31.1574 43.5626C31.0153 43.4209 30.9021 43.2519 30.8245 43.0654C30.7468 42.879 30.7063 42.6787 30.7051 42.4762Z" fill="#1CDAD2"/>
</g>
<defs>
<clipPath id="clip0">
<rect width="43" height="44" fill="white"/>
</clipPath>
</defs>
</svg>
