<svg width="16" height="19" viewBox="0 0 16 19" fill="none" xmlns="http://www.w3.org/2000/svg">
<g clip-path="url(#clip0)">
<path d="M8.00625 5.92348C5.73482 5.92348 3.90268 7.76707 3.90268 10.0527C3.90268 12.3383 5.73482 14.1819 8.00625 14.1819C10.2777 14.1819 12.1098 12.3383 12.1098 10.0527C12.1098 7.76707 10.2777 5.92348 8.00625 5.92348ZM8.00625 12.7372C6.53839 12.7372 5.33839 11.5333 5.33839 10.0527C5.33839 8.57207 6.53482 7.36816 8.00625 7.36816C9.47768 7.36816 10.6741 8.57207 10.6741 10.0527C10.6741 11.5333 9.47411 12.7372 8.00625 12.7372ZM13.2348 5.75457C13.2348 6.29004 12.8063 6.7177 12.2777 6.7177C11.7455 6.7177 11.3205 6.28645 11.3205 5.75457C11.3205 5.2227 11.7491 4.79145 12.2777 4.79145C12.8063 4.79145 13.2348 5.2227 13.2348 5.75457ZM15.9527 6.73207C15.892 5.44191 15.5991 4.2991 14.6598 3.35754C13.7241 2.41598 12.5884 2.12129 11.3062 2.0566C9.98482 1.98113 6.02411 1.98113 4.70268 2.0566C3.42411 2.1177 2.28839 2.41238 1.34911 3.35395C0.409821 4.29551 0.120536 5.43832 0.05625 6.72848C-0.01875 8.05816 -0.01875 12.0436 0.05625 13.3733C0.116964 14.6635 0.409821 15.8063 1.34911 16.7479C2.28839 17.6894 3.42054 17.9841 4.70268 18.0488C6.02411 18.1243 9.98482 18.1243 11.3062 18.0488C12.5884 17.9877 13.7241 17.693 14.6598 16.7479C15.5955 15.8063 15.8884 14.6635 15.9527 13.3733C16.0277 12.0436 16.0277 8.06176 15.9527 6.73207ZM14.2455 14.8C13.967 15.5044 13.4277 16.0471 12.7241 16.331C11.6705 16.7514 9.17054 16.6544 8.00625 16.6544C6.84196 16.6544 4.33839 16.7479 3.28839 16.331C2.58839 16.0507 2.04911 15.508 1.76696 14.8C1.34911 13.7399 1.44554 11.2243 1.44554 10.0527C1.44554 8.88113 1.35268 6.36191 1.76696 5.30535C2.04554 4.60098 2.58482 4.05832 3.28839 3.77441C4.34196 3.35395 6.84196 3.45098 8.00625 3.45098C9.17054 3.45098 11.6741 3.35754 12.7241 3.77441C13.4241 4.05473 13.9634 4.59738 14.2455 5.30535C14.6634 6.36551 14.567 8.88113 14.567 10.0527C14.567 11.2243 14.6634 13.7435 14.2455 14.8Z" fill="#FCFCFC"/>
</g>
<defs>
<clipPath id="clip0">
<rect width="16" height="18.4" fill="white"/>
</clipPath>
</defs>
</svg>
