<svg width="16" height="17" viewBox="0 0 16 17" fill="none" xmlns="http://www.w3.org/2000/svg">
<path d="M3.58143 16.6667H0.264286V5.53919H3.58143V16.6667ZM1.92107 4.0213C0.860357 4.0213 0 3.1061 0 2.00116C7.59214e-09 1.47042 0.202398 0.961417 0.562669 0.586126C0.92294 0.210836 1.41157 0 1.92107 0C2.43057 0 2.9192 0.210836 3.27947 0.586126C3.63974 0.961417 3.84214 1.47042 3.84214 2.00116C3.84214 3.1061 2.98143 4.0213 1.92107 4.0213ZM15.9964 16.6667H12.6864V11.2499C12.6864 9.95893 12.6614 8.30338 10.9618 8.30338C9.23714 8.30338 8.97286 9.70595 8.97286 11.1569V16.6667H5.65929V5.53919H8.84071V7.05708H8.88714C9.33 6.1828 10.4118 5.26016 12.0257 5.26016C15.3829 5.26016 16 7.56304 16 10.5542V16.6667H15.9964Z" fill="#FCFCFC"/>
</svg>
